# xmcd
#
# Track frame offsets:
#  150
#  14773
#  27149
#  44625
#  60972
#  74174
#  89857
#  106233
#  120364
#  132991
#  148448
#  160740
#
# Disc length: 2305 seconds
#
# Revision: 0
# Processed by: cddbd v1.5.2PL0 Copyright (c) Steve Scherf et al.
# Submitted via: AltoMP3_Maker 3.0
#
DISCID=b308ff0c
DTITLE=High Atmosphere - Old Camp Meeting
DYEAR=1900
DGENRE=
TTITLE0=The Old Rugged Cross
TTITLE1=Unclouded Day
TTITLE2=Whispering Hope
TTITLE3=Angel Band
TTITLE4=Sweet By And By
TTITLE5=Softly And Tenderly
TTITLE6=How Great Thou Art
TTITLE7=Lifes Railway To Heaven
TTITLE8=Just As I Am
TTITLE9=In The Garden
TTITLE10=Ill Fly Away
TTITLE11=Amazing Grace
EXTD=
EXTT0=
EXTT1=
EXTT2=
EXTT3=
EXTT4=
EXTT5=
EXTT6=
EXTT7=
EXTT8=
EXTT9=
EXTT10=
EXTT11=
PLAYORDER=
